<svg width="13" height="17" viewBox="0 0 13 17" fill="none" xmlns="http://www.w3.org/2000/svg">
<path d="M0.625 14.8828L12 14.8828L12 16.8437L0.625 16.8437L0.625 14.8828ZM5.60156 10.2422L7.15625 10.2422L7.15625 15.3828L5.60156 15.3828L5.60156 10.2422ZM0.625 9.59375L2.1875 9.59375L2.1875 15.3828L0.625 15.3828L0.625 9.59375ZM-4.27894e-07 8.21094L-5.10194e-07 6.32812L10.1953 6.32812L12 6.50781L12 8.21094L-4.27894e-07 8.21094ZM7.69531 0.8125L7.85937 0.8125C8.48437 0.812499 9.0599 0.882812 9.58594 1.02344C10.1068 1.15885 10.5599 1.36719 10.9453 1.64844C11.3307 1.92448 11.6302 2.26823 11.8437 2.67969C12.0521 3.08594 12.1562 3.55729 12.1562 4.09375C12.1562 4.61979 12.0573 5.07812 11.8594 5.46875C11.6615 5.85937 11.3802 6.1875 11.0156 6.45312C10.651 6.71354 10.2161 6.92448 9.71094 7.08594C9.20573 7.2474 8.64844 7.36198 8.03906 7.42969L7.51562 7.42969C6.90104 7.36198 6.34375 7.2474 5.84375 7.08594C5.33854 6.92448 4.90365 6.71354 4.53906 6.45312C4.16927 6.1875 3.88542 5.86198 3.6875 5.47656C3.48958 5.08594 3.39062 4.63021 3.39062 4.10937C3.39062 3.56771 3.49479 3.09115 3.70312 2.67969C3.91146 2.26302 4.20833 1.91667 4.59375 1.64062C4.97396 1.36458 5.42708 1.15885 5.95312 1.02344C6.47917 0.882812 7.0599 0.8125 7.69531 0.8125ZM7.85937 2.69531L7.69531 2.69531C7.3151 2.69531 6.95833 2.72656 6.625 2.78906C6.28646 2.85156 5.98958 2.95573 5.73437 3.10156C5.47917 3.24219 5.27865 3.4349 5.13281 3.67969C4.98177 3.91927 4.90625 4.21875 4.90625 4.57812C4.90625 4.91146 4.96354 5.19792 5.07812 5.4375C5.19271 5.67708 5.34896 5.8776 5.54687 6.03906C5.74479 6.20052 5.97396 6.32812 6.23437 6.42187C6.49479 6.51042 6.77604 6.57031 7.07812 6.60156L8.49219 6.60156C8.88281 6.55469 9.24219 6.45573 9.57031 6.30469C9.89323 6.14844 10.1536 5.92969 10.3516 5.64844C10.5443 5.36719 10.6406 5.00521 10.6406 4.5625C10.6406 4.21354 10.5703 3.91927 10.4297 3.67969C10.2891 3.4401 10.0937 3.25 9.84375 3.10937C9.58854 2.96354 9.29167 2.85937 8.95312 2.79687C8.61458 2.72917 8.25 2.69531 7.85937 2.69531Z" fill="white"/>
</svg>
