<svg width="12" height="12" viewBox="0 0 12 12" fill="none" xmlns="http://www.w3.org/2000/svg">
<path d="M0.625 9.75L12 9.75L12 11.7109L0.625 11.7109L0.625 9.75ZM5.35156 5.63281L12 5.63281L12 7.51562L3.54687 7.51562L3.54687 5.74219L5.35156 5.63281ZM7.46094 5.96875L7.45312 6.57812C6.85417 6.57292 6.30469 6.48958 5.80469 6.32812C5.30469 6.16146 4.875 5.93229 4.51562 5.64062C4.15625 5.34375 3.88021 4.98958 3.6875 4.57812C3.48958 4.16667 3.39062 3.70833 3.39062 3.20312C3.39062 2.79687 3.44792 2.42969 3.5625 2.10156C3.67187 1.76823 3.85156 1.48437 4.10156 1.25C4.35156 1.01042 4.67708 0.828125 5.07812 0.703125C5.47396 0.578125 5.96094 0.515625 6.53906 0.515625L12 0.515624L12 2.40625L6.53125 2.40625C6.125 2.40625 5.80469 2.46615 5.57031 2.58594C5.33073 2.70052 5.16146 2.86979 5.0625 3.09375C4.95833 3.3125 4.90625 3.58594 4.90625 3.91406C4.90625 4.23698 4.97396 4.52604 5.10937 4.78125C5.24479 5.03646 5.42969 5.2526 5.66406 5.42969C5.89844 5.60156 6.16927 5.73437 6.47656 5.82812C6.78385 5.92187 7.11198 5.96875 7.46094 5.96875Z" fill="white"/>
</svg>
