<svg width="69" height="33" viewBox="0 0 69 33" fill="none" xmlns="http://www.w3.org/2000/svg">
<path d="M15.5117 6.06836L7.00391 32H0.150391L11.7734 0.71875H16.1348L15.5117 6.06836ZM22.5801 32L14.0508 6.06836L13.3633 0.71875H17.7676L29.4551 32H22.5801ZM22.1934 20.3555V25.4043H5.67188V20.3555H22.1934ZM42.668 32.4297C40.8633 32.4297 39.2448 32.1432 37.8125 31.5703C36.3802 30.9831 35.1628 30.1738 34.1602 29.1426C33.1719 28.1113 32.4128 26.9154 31.8828 25.5547C31.3529 24.1797 31.0879 22.7188 31.0879 21.1719V20.3125C31.0879 18.5508 31.3385 16.9395 31.8398 15.4785C32.3411 14.0176 33.0573 12.75 33.9883 11.6758C34.9336 10.6016 36.0794 9.77799 37.4258 9.20508C38.7721 8.61784 40.2904 8.32422 41.9805 8.32422C43.6276 8.32422 45.0885 8.59635 46.3633 9.14062C47.638 9.6849 48.7051 10.4583 49.5645 11.4609C50.4382 12.4635 51.097 13.6667 51.541 15.0703C51.985 16.4596 52.207 18.0065 52.207 19.7109V22.2891H33.7305V18.1641H46.127V17.6914C46.127 16.832 45.9694 16.0658 45.6543 15.3926C45.3535 14.7051 44.8952 14.1608 44.2793 13.7598C43.6634 13.3587 42.8757 13.1582 41.916 13.1582C41.0996 13.1582 40.3978 13.3372 39.8105 13.6953C39.2233 14.0534 38.7435 14.5547 38.3711 15.1992C38.013 15.8438 37.7409 16.6029 37.5547 17.4766C37.3828 18.3359 37.2969 19.2812 37.2969 20.3125V21.1719C37.2969 22.1029 37.4258 22.9622 37.6836 23.75C37.9557 24.5378 38.3353 25.2181 38.8223 25.791C39.3236 26.3639 39.9251 26.8079 40.627 27.123C41.3431 27.4382 42.1523 27.5957 43.0547 27.5957C44.1719 27.5957 45.2103 27.3809 46.1699 26.9512C47.1439 26.5072 47.9818 25.8411 48.6836 24.9531L51.6914 28.2188C51.2044 28.9206 50.5384 29.5938 49.6934 30.2383C48.8626 30.8828 47.86 31.4128 46.6855 31.8281C45.5111 32.2292 44.1719 32.4297 42.668 32.4297ZM61.918 13.8242V32H55.7305V8.75391H61.5527L61.918 13.8242ZM68.9219 8.60352L68.8145 14.3398C68.5137 14.2969 68.1484 14.2611 67.7188 14.2324C67.3034 14.1895 66.9238 14.168 66.5801 14.168C65.7064 14.168 64.9473 14.2826 64.3027 14.5117C63.6725 14.7266 63.1426 15.0488 62.7129 15.4785C62.2975 15.9082 61.9824 16.431 61.7676 17.0469C61.5671 17.6628 61.4525 18.3646 61.4238 19.1523L60.1777 18.7656C60.1777 17.2617 60.3281 15.8796 60.6289 14.6191C60.9297 13.3444 61.3665 12.2344 61.9395 11.2891C62.5267 10.3438 63.2428 9.61328 64.0879 9.09766C64.9329 8.58203 65.8997 8.32422 66.9883 8.32422C67.332 8.32422 67.6829 8.35286 68.041 8.41016C68.3991 8.45312 68.6927 8.51758 68.9219 8.60352Z" fill="white"/>
</svg>
