<svg width="12" height="21" viewBox="0 0 12 21" fill="none" xmlns="http://www.w3.org/2000/svg">
<path d="M0.625 15.1641L12 15.1641L12 17.1094L0.625 17.1094L0.625 15.1641ZM0.625 11.5937L2.1875 11.5937L2.1875 20.6484L0.625 20.6484L0.625 11.5937ZM10.125 8.40625L3.54687 6.45312L3.54687 5.25L5.51562 5.57812L12 7.54687L12 8.625L10.125 8.40625ZM3.54687 9.55469L10.1562 8.03125L12 7.90625L12 9.10937L3.54687 11.3984L3.54687 9.55469ZM10.0781 3.42187L3.54687 1.94531L3.54687 0.109375L12 2.39062L12 3.59375L10.0781 3.42187ZM3.54687 5.04687L10.0469 3.11719L12 2.875L12 3.95312L5.50781 5.94531L3.54687 6.27344L3.54687 5.04687Z" fill="white"/>
</svg>
